<svg xmlns="http://www.w3.org/2000/svg" viewBox="0 0 780 560" width="780" height="560" font-family="sans-serif">
  <rect width="780" height="560" fill="#FBFBF7"/>
  <text x="390" y="42" text-anchor="middle" font-size="26" font-weight="bold" fill="#3A3A3A">かんじ イラスト サンプル（1ねんせい）</text>

  <!-- cell template: card + illustration(scaled 200->180) + label -->
  <g transform="translate(40,70)">
    <rect width="220" height="210" rx="20" fill="#FFFFFF" stroke="#ECE6DA"/>
    <g transform="translate(20,14) scale(0.9)">
      <rect width="200" height="200" rx="24" fill="#FFF6E9"/>
      <circle cx="48" cy="52" r="20" fill="#FFD25A"/>
      <path d="M-5 178 L58 92 L118 178 Z" fill="#9AD17E"/>
      <path d="M55 178 L132 52 L212 178 Z" fill="#7BAE5C"/>
      <path d="M114 92 L132 52 L150 92 Q132 80 114 92 Z" fill="#FFFFFF"/>
      <rect x="-5" y="172" width="215" height="16" fill="#C7E3AE"/>
    </g>
    <text x="110" y="200" text-anchor="middle" font-size="20" fill="#3A3A3A"><tspan font-size="26" font-weight="bold">山</tspan>  やま</text>
  </g>

  <g transform="translate(280,70)">
    <rect width="220" height="210" rx="20" fill="#FFFFFF" stroke="#ECE6DA"/>
    <g transform="translate(20,14) scale(0.9)">
      <rect width="200" height="200" rx="24" fill="#FFF6E9"/>
      <path d="M0 0 L82 0 Q56 100 82 200 L0 200 Z" fill="#9AD17E"/>
      <path d="M200 0 L118 0 Q144 100 118 200 L200 200 Z" fill="#9AD17E"/>
      <path d="M82 0 Q56 100 82 200 L118 200 Q144 100 118 0 Z" fill="#6EC6E6"/>
      <g stroke="#EAF7FC" stroke-width="5" stroke-linecap="round" fill="none">
        <path d="M88 55 Q100 63 112 55"/><path d="M84 100 Q100 108 116 100"/><path d="M88 145 Q100 153 112 145"/>
      </g>
    </g>
    <text x="110" y="200" text-anchor="middle" font-size="20" fill="#3A3A3A"><tspan font-size="26" font-weight="bold">川</tspan>  かわ</text>
  </g>

  <g transform="translate(520,70)">
    <rect width="220" height="210" rx="20" fill="#FFFFFF" stroke="#ECE6DA"/>
    <g transform="translate(20,14) scale(0.9)">
      <rect width="200" height="200" rx="24" fill="#FFF6E9"/>
      <rect x="20" y="176" width="160" height="14" rx="7" fill="#C7E3AE"/>
      <rect x="91" y="118" width="18" height="66" rx="6" fill="#B07B4F"/>
      <circle cx="70" cy="100" r="34" fill="#8FBF6E"/>
      <circle cx="130" cy="100" r="34" fill="#8FBF6E"/>
      <circle cx="100" cy="80" r="46" fill="#7BAE5C"/>
    </g>
    <text x="110" y="200" text-anchor="middle" font-size="20" fill="#3A3A3A"><tspan font-size="26" font-weight="bold">木</tspan>  き</text>
  </g>

  <g transform="translate(40,300)">
    <rect width="220" height="210" rx="20" fill="#FFFFFF" stroke="#ECE6DA"/>
    <g transform="translate(20,14) scale(0.9)">
      <rect width="200" height="200" rx="24" fill="#FFF6E9"/>
      <rect x="94" y="84" width="12" height="98" rx="6" fill="#7BAE5C"/>
      <ellipse cx="70" cy="140" rx="24" ry="11" transform="rotate(-22 70 140)" fill="#8FBF6E"/>
      <ellipse cx="130" cy="120" rx="22" ry="10" transform="rotate(22 130 120)" fill="#8FBF6E"/>
      <g fill="#FF8FB1"><circle cx="100" cy="42" r="19"/><circle cx="131" cy="63" r="19"/><circle cx="119" cy="99" r="19"/><circle cx="81" cy="99" r="19"/><circle cx="69" cy="63" r="19"/></g>
      <circle cx="100" cy="71" r="18" fill="#FFD25A"/>
    </g>
    <text x="110" y="200" text-anchor="middle" font-size="20" fill="#3A3A3A"><tspan font-size="26" font-weight="bold">花</tspan>  はな</text>
  </g>

  <g transform="translate(280,300)">
    <rect width="220" height="210" rx="20" fill="#FFFFFF" stroke="#ECE6DA"/>
    <g transform="translate(20,14) scale(0.9)">
      <rect width="200" height="200" rx="24" fill="#FFF6E9"/>
      <rect x="52" y="150" width="96" height="16" rx="8" transform="rotate(16 100 158)" fill="#B07B4F"/>
      <rect x="52" y="150" width="96" height="16" rx="8" transform="rotate(-16 100 158)" fill="#9A6A44"/>
      <path d="M100 32 C142 88 122 132 100 152 C78 132 58 88 100 32 Z" fill="#FF7A3D"/>
      <path d="M100 70 C122 100 112 126 100 142 C88 126 78 100 100 70 Z" fill="#FFD25A"/>
    </g>
    <text x="110" y="200" text-anchor="middle" font-size="20" fill="#3A3A3A"><tspan font-size="26" font-weight="bold">火</tspan>  ひ</text>
  </g>

  <g transform="translate(520,300)">
    <rect width="220" height="210" rx="20" fill="#FFFFFF" stroke="#ECE6DA"/>
    <g transform="translate(20,14) scale(0.9)">
      <rect width="200" height="200" rx="24" fill="#FFF6E9"/>
      <ellipse cx="52" cy="74" rx="20" ry="34" transform="rotate(-22 52 74)" fill="#B07B4F"/>
      <ellipse cx="148" cy="74" rx="20" ry="34" transform="rotate(22 148 74)" fill="#B07B4F"/>
      <circle cx="100" cy="108" r="58" fill="#E0B584"/>
      <ellipse cx="100" cy="132" rx="36" ry="29" fill="#F5E1C6"/>
      <circle cx="79" cy="98" r="7" fill="#3A3A3A"/><circle cx="121" cy="98" r="7" fill="#3A3A3A"/>
      <ellipse cx="100" cy="120" rx="11" ry="8" fill="#3A3A3A"/>
      <path d="M100 128 Q100 143 88 147 M100 128 Q100 143 112 147" stroke="#3A3A3A" stroke-width="4" stroke-linecap="round" fill="none"/>
    </g>
    <text x="110" y="200" text-anchor="middle" font-size="20" fill="#3A3A3A"><tspan font-size="26" font-weight="bold">犬</tspan>  いぬ</text>
  </g>
</svg>
