<svg xmlns="http://www.w3.org/2000/svg" viewBox="0 0 200 200" width="200" height="200" role="img" aria-label="もり">
  <rect width="200" height="200" rx="24" fill="#FFF6E9"/>
  <rect x="18" y="168" width="164" height="12" rx="6" fill="#C7E3AE"/>
  <g>
    <rect x="94" y="70" width="12" height="60" rx="5" fill="#B07B4F"/>
    <polygon points="100,30 132,86 68,86" fill="#7BAE5C"/>
    <polygon points="100,54 128,100 72,100" fill="#8FBF6E"/>
  </g>
  <g>
    <rect x="46" y="120" width="10" height="50" rx="5" fill="#B07B4F"/>
    <polygon points="51,86 78,132 24,132" fill="#7BAE5C"/>
    <polygon points="51,104 74,142 28,142" fill="#8FBF6E"/>
  </g>
  <g>
    <rect x="144" y="120" width="10" height="50" rx="5" fill="#B07B4F"/>
    <polygon points="149,86 176,132 122,132" fill="#7BAE5C"/>
    <polygon points="149,104 172,142 126,142" fill="#8FBF6E"/>
  </g>
</svg>
